<svg xmlns="http://www.w3.org/2000/svg" viewBox="0 0 191.47 47.12"><defs><style>.cls-1{fill:#137cbc;}.cls-2{fill:#3fa9f5;}.cls-3{fill:#fff;}</style></defs><title>prism-logo-text-wit</title><g id="Layer_2" data-name="Layer 2"><g id="Layer_1-2" data-name="Layer 1"><polygon class="cls-1" points="27.45 15.85 0 0 0 31.69 27.45 15.85"/><polygon class="cls-2" points="18.23 34.27 40.49 47.12 40.49 21.43 18.23 34.27"/><path class="cls-3" d="M62,25.38V35.87H55.87V6.1H67.49a13.44,13.44,0,0,1,5.9,1.22,9,9,0,0,1,3.91,3.49A9.67,9.67,0,0,1,78.67,16a8.55,8.55,0,0,1-3,6.9q-3,2.53-8.29,2.53Zm0-5h5.48a5.4,5.4,0,0,0,3.71-1.14A4.2,4.2,0,0,0,72.48,16a4.89,4.89,0,0,0-1.29-3.53,4.79,4.79,0,0,0-3.56-1.39H62Z"/><path class="cls-3" d="M97.05,25H92.16v10.9H86V6.1H97.09q5.28,0,8.14,2.35a8.1,8.1,0,0,1,2.86,6.64,9.17,9.17,0,0,1-1.32,5.09,9,9,0,0,1-4,3.24l6.44,12.16v.29h-6.59Zm-4.89-5h5a5.08,5.08,0,0,0,3.58-1.17A4.21,4.21,0,0,0,102,15.58a4.5,4.5,0,0,0-1.2-3.31,5,5,0,0,0-3.67-1.2H92.16Z"/><path class="cls-3" d="M122.42,35.87h-6.13V6.1h6.13Z"/><path class="cls-3" d="M146.69,28.06a3.15,3.15,0,0,0-1.23-2.67,16.18,16.18,0,0,0-4.42-2,31.44,31.44,0,0,1-5-2q-5.07-2.73-5.07-7.38a7.15,7.15,0,0,1,1.36-4.3,8.84,8.84,0,0,1,3.91-3,14.64,14.64,0,0,1,5.71-1.06,13.42,13.42,0,0,1,5.69,1.15,9.08,9.08,0,0,1,3.87,3.26,8.56,8.56,0,0,1,1.38,4.79h-6.13a4,4,0,0,0-1.29-3.18,5.29,5.29,0,0,0-3.62-1.14,5.62,5.62,0,0,0-3.5,1,3,3,0,0,0-1.24,2.5,2.85,2.85,0,0,0,1.46,2.43,16.21,16.21,0,0,0,4.3,1.84c3.49,1.05,6,2.36,7.63,3.91A7.75,7.75,0,0,1,152.84,28a7.14,7.14,0,0,1-2.92,6.06,12.78,12.78,0,0,1-7.87,2.2A15.19,15.19,0,0,1,135.79,35a9.93,9.93,0,0,1-4.31-3.44A8.81,8.81,0,0,1,130,26.51h6.16q0,4.92,5.89,4.92a5.69,5.69,0,0,0,3.41-.89A2.88,2.88,0,0,0,146.69,28.06Z"/><path class="cls-3" d="M168.15,6.1l7.65,21.59L183.41,6.1h8.06V35.87h-6.16V27.73l.61-14-8,22.19h-4.22l-8-22.17.61,14v8.14h-6.13V6.1Z"/></g></g></svg>