<svg xmlns="http://www.w3.org/2000/svg" width="687.714" height="568.935" viewBox="0 0 687.714 568.935">
  <g id="Group_26" data-name="Group 26" transform="translate(-272.286 -2531.539)">
    <path id="Path_229" data-name="Path 229" d="M857.421,732.091a108.541,108.541,0,0,0,144.492-161.269Z" transform="translate(-72.448 2345.245)" fill="#3fa9f5" opacity="0.05"/>
    <path id="Path_230" data-name="Path 230" d="M465.131,287.049,330.992,434.922a108.941,108.941,0,0,0,32.206,40.55L507.689,314.2a108.6,108.6,0,0,0-42.558-27.154Z" transform="translate(54.389 2413.617)" fill="#3fa9f5" opacity="0.05"/>
    <path id="Path_231" data-name="Path 231" d="M484.593,259.705V173.238H414v86.2a109.013,109.013,0,0,1,70.593.267Z" transform="translate(34.389 2441.038)" fill="#3fa9f5"/>
    <path id="Path_232" data-name="Path 232" d="M414,555.592v88.477h70.593V555.324a109.013,109.013,0,0,1-70.593.267Z" transform="translate(34.389 2348.979)" fill="#3fa9f5"/>
    <path id="Path_233" data-name="Path 233" d="M426.425,495.589A108.925,108.925,0,1,1,535.351,386.663,109.049,109.049,0,0,1,426.425,495.589Zm0-217.092A108.166,108.166,0,1,0,534.592,386.663,108.289,108.289,0,0,0,426.425,278.5Z" transform="translate(57.64 2415.86)"/>
    <path id="Path_234" data-name="Path 234" d="M360,396.9a76.665,76.665,0,0,0,76.665,76.665V320.238A76.665,76.665,0,0,0,360,396.9Z" transform="translate(47.4 2405.621)" fill="#137cbc"/>
    <path id="Path_235" data-name="Path 235" d="M461,320.238V473.569a76.665,76.665,0,1,0,0-153.331Z" transform="translate(23.065 2405.621)" fill="#3fa9f5"/>
    <ellipse id="Ellipse_19" data-name="Ellipse 19" cx="11" cy="10.5" rx="11" ry="10.5" transform="translate(473 2796)" fill="#2f2e41"/>
    <path id="Path_236" data-name="Path 236" d="M277.3,310.658l2.648,21,2.648,21H272l2.648-21Z" transform="translate(206.752 2456.689)" fill="#2f2e41"/>
    <path id="Path_237" data-name="Path 237" d="M340.544,361.69,306,362.982l-34.546,1.291.019-3.017.019-3.018,34.527,1.726Z" transform="translate(206.884 2445.226)" fill="#2f2e41"/>
    <path id="Path_238" data-name="Path 238" d="M607.461,422.4c-1.758,0-2.467-1.208-3.365-2.736-.225-.382-.468-.8-.749-1.233l.639-.411c.288.447.536.87.765,1.259.895,1.523,1.388,2.362,2.711,2.362,4.395,0,7.97-7.321,7.97-16.32S611.856,389,607.461,389c-2.537,0-4.3,1.566-5.72,5.076l-.7-.285c1.552-3.839,3.533-5.551,6.425-5.551,4.813,0,8.729,7.661,8.729,17.079S612.274,422.4,607.461,422.4Z" transform="translate(-10.675 2389.237)"/>
    <ellipse id="Ellipse_20" data-name="Ellipse 20" cx="103.5" cy="4" rx="103.5" ry="4" transform="translate(391 3066)" fill="#3fa9f5" opacity="0.05"/>
    <circle id="Ellipse_21" data-name="Ellipse 21" cx="16" cy="16" r="16" transform="translate(844 2637)" fill="#3fa9f5" opacity="0.05"/>
    <path id="Path_239" data-name="Path 239" d="M290.546,64.238a108.586,108.586,0,0,0-98.684,153.8L326,70.167a108.382,108.382,0,0,0-35.455-5.929Z" transform="translate(90.287 2467.301)" fill="#3fa9f5" opacity="0.05"/>
    <circle id="Ellipse_22" data-name="Ellipse 22" cx="23.711" cy="23.711" r="23.711" transform="translate(717.779 2685.796)" fill="#2f2e41"/>
    <path id="Path_240" data-name="Path 240" d="M747.584,493.256s18.931,47.826,20.924,47.826,4.982-17.935,4.982-17.935L761.533,489.27Z" transform="translate(-45.984 2364.894)" fill="#ffb9b9"/>
    <path id="Path_241" data-name="Path 241" d="M784.337,320.567s4.982,20.924,2.989,24.909,3.985,9.964,3.985,9.964h13.949l9.964-15.942,1.993-6.975s-5.978-15.942-4.982-17.935S784.337,320.567,784.337,320.567Z" transform="translate(-54.839 2407.059)" fill="#ffb9b9"/>
    <path id="Path_242" data-name="Path 242" d="M784.337,320.567s4.982,20.924,2.989,24.909,3.985,9.964,3.985,9.964h13.949l9.964-15.942,1.993-6.975s-5.978-15.942-4.982-17.935S784.337,320.567,784.337,320.567Z" transform="translate(-54.839 2407.059)" opacity="0.1"/>
    <path id="Path_243" data-name="Path 243" d="M675.845,704.624v10.96l12.953,2.989,1-13.949Z" transform="translate(109.45 2361.768)" fill="#575a89"/>
    <path id="Path_244" data-name="Path 244" d="M785.087,508.692s-13.949,24.909-8.967,37.862,23.913,76.721,23.913,76.721,10.96,35.869,10.96,37.862,8.967,45.833,11.956,46.829,29.891,3.986,30.887,1,1.993-18.931-1-21.92-18.931-95.652-18.931-95.652L831.917,560.5l24.909,76.721s6.975,45.833,9.964,48.822-5.978,5.978-2.989,8.967,13.949,10.96,12.953,13.949,23.913,2.989,26.9,1,1.993-32.88,1.993-32.88L891.7,635.23,875.757,533.6s-4.982-29.891-8.967-29.891S785.087,508.692,785.087,508.692Z" transform="translate(-52.6 2361.415)" fill="#2f2e41"/>
    <path id="Path_245" data-name="Path 245" d="M849.616,776.355s-7.971-6.975-11.956-4.982S820.721,792.3,816.735,791.3s-9.964,10.723,0,11.719,25.906-1,25.906-1a76.945,76.945,0,0,0,9.964,1c3.985,0,12.953,1,12.953,0s-1.993-23.676-2.989-23.676S850.611,779.344,849.616,776.355Z" transform="translate(-61.331 2297.011)" fill="#2f2e41"/>
    <path id="Path_246" data-name="Path 246" d="M928.917,768.581s-9.964-1.993-10.96,0-4.982,7.971-4.982,8.967,1.993,12.953,1.993,13.949,1.993,3.985,3.986,5.978a3.515,3.515,0,0,1,1,3.986s25.906,2.989,25.906-1-2.989-12.953-4.982-14.946S934.9,769.577,928.917,768.581Z" transform="translate(-85.833 2297.811)" fill="#2f2e41"/>
    <circle id="Ellipse_23" data-name="Ellipse 23" cx="20.924" cy="20.924" r="20.924" transform="translate(720.531 2694.746)" fill="#ffb9b9"/>
    <path id="Path_247" data-name="Path 247" d="M787.69,354.72s11.956,6.975,18.931-3.985,28.895,21.92,28.895,21.92l5.978,101.63s-10.96,1-29.891,5.978-27.9-6.975-27.9-6.975l-1-57.789,1.993-26.9-2.989-21.92,1.993-12.953Z" transform="translate(-54.207 2398.812)" fill="#3fa9f5"/>
    <path id="Path_248" data-name="Path 248" d="M755.65,373.759s-7.971,1.993-9.964,15.942-5.978,55.8-5.978,55.8l4.982,24.909s13.949-10.96,18.931-5.978l-2.989-14.946,2.989-8.967-8.967-38.858Z" transform="translate(-44.086 2392.725)" fill="#3fa9f5"/>
    <path id="Path_249" data-name="Path 249" d="M779.578,334.38s-1.882,0-1.882,6.975-18.931,16.938-18.931,16.938-1.993,2.989-1.993,10.96,0,26.9,1.993,32.88,4.982,25.906,5.978,27.9,1,10.96-1,12.953,4.982,13.949,6.975,14.946-6.975,26.9-1.993,27.9,13.949-11.956,16.938-18.931,1-103.623,0-110.6S779.578,334.38,779.578,334.38Z" transform="translate(-48.198 2402.213)" fill="#137cbc"/>
    <path id="Path_250" data-name="Path 250" d="M820.3,325.235s-.746-4.548,4.236-.562,5.978,6.975,5.978,6.975,25.906,0,26.9,2.989-.594,28.427-.594,28.427l13.093,48.683s18.388,56.4,20.381,58.4-15.942-8.967-25.906-1S836.5,481.1,834.5,476.121,810.59,355.56,810.59,355.56s0-18.931,2.989-20.924S820.3,325.235,820.3,325.235Z" transform="translate(-61.164 2404.946)" fill="#137cbc"/>
    <path id="Path_251" data-name="Path 251" d="M891.7,449.892l-3.986,45.833-1,3.986,14.946,19.927s2.989-10.96,1.993-14.946,4.982-48.822,4.982-48.822Z" transform="translate(-79.507 2374.382)" fill="#ffb9b9"/>
    <path id="Path_252" data-name="Path 252" d="M777.99,280.96s-4.841-12.587,2.178-16.7l1.936,5.567s17.67-10.65,22.269-8.23l-4.357,5.809s20.574,0,22.026,7.988l-7.261.242s7.746,5.083,7.988,13.313l-15.491.968,7.5,4.357s-28.078,3.873-34.855-7.261Z" transform="translate(-52.918 2419.836)" fill="#2f2e41"/>
    <path id="Path_253" data-name="Path 253" d="M772.982,285.612s5.579,11.158,13.018,8.369,0-13.018,0-13.018l-4.959-2.48Z" transform="translate(-52.103 2415.681)" fill="#2f2e41"/>
    <path id="Path_254" data-name="Path 254" d="M869.658,340.943s5.978,1,9.964,7.971,23.913,52.808,24.909,54.8,1,28.895,1,28.895-13.949-7.971-19.927-2.989l-1-11.956-12.953-45.833-1.993-14.946Z" transform="translate(-75.396 2400.632)" fill="#3fa9f5"/>
  </g>
</svg>
