<svg xmlns="http://www.w3.org/2000/svg" width="735.622" height="572.518" viewBox="0 0 735.622 572.518">
  <g id="Group_25" data-name="Group 25" transform="translate(0 0)">
    <path id="Path_260" data-name="Path 260" d="M965.414,725.511c-.054-.236-5.238-23.878,5.35-43.514s33.19-28.295,33.417-28.38l1.033-.387.244,1.077c.054.236,5.238,23.878-5.35,43.514s-33.19,28.295-33.417,28.38l-1.033.387Zm38.383-69.655c-4.527,1.947-22.4,10.471-31.338,27.055s-6.245,36.2-5.385,41.05c4.525-1.943,22.386-10.453,31.338-27.055,8.943-16.585,6.244-36.2,5.388-41.05Z" transform="translate(-317.291 -193.072)" fill="#3f3d56"/>
    <path id="Path_261" data-name="Path 261" d="M992.37,697.647c-19.028,11.448-26.356,34.186-26.356,34.186s23.522,4.178,42.549-7.27,26.356-34.186,26.356-34.186S1011.4,686.2,992.37,697.647Z" transform="translate(-317.645 -199.787)" fill="#d0cde1"/>
    <path id="Path_262" data-name="Path 262" d="M442.907,517.973c-2.263,0-4.548-.036-6.792-.106l.051-1.629c3.222.1,6.509.128,9.746.084l.022,1.631Q444.423,517.973,442.907,517.973Zm12.841-.378-.1-1.628c3.226-.19,6.494-.458,9.712-.795l.17,1.622c-3.244.34-6.536.61-9.787.8Zm-29.438-.254c-3.253-.249-6.541-.576-9.772-.972l.2-1.618c3.206.393,6.469.718,9.7.964Zm48.965-1.794-.245-1.612c3.206-.487,6.436-1.051,9.6-1.68l.318,1.6c-3.188.634-6.442,1.2-9.672,1.693Zm-68.453-.6c-3.214-.545-6.458-1.171-9.642-1.862l.346-1.594c3.16.687,6.379,1.308,9.569,1.848Zm87.71-3.231-.392-1.583c3.147-.778,6.311-1.638,9.405-2.556l.464,1.564c-3.118.925-6.306,1.791-9.477,2.575Zm-106.9-.935c-3.153-.839-6.325-1.761-9.43-2.743l.491-1.555c3.081.974,6.229,1.889,9.357,2.721Zm125.723-4.65-.535-1.54c3.054-1.062,6.125-2.209,9.129-3.412l.605,1.515c-3.027,1.211-6.122,2.368-9.2,3.438Zm-144.47-1.277c-3.062-1.125-6.143-2.34-9.157-3.609l.633-1.5c2.991,1.26,6.048,2.465,9.086,3.582Zm162.681-6.009-.675-1.485c2.932-1.332,5.88-2.755,8.761-4.227l.742,1.453c-2.9,1.484-5.874,2.917-8.828,4.259Zm17.451-8.921-.808-1.416c2.812-1.6,5.62-3.292,8.343-5.014l.871,1.378c-2.744,1.736-5.573,3.436-8.407,5.053Zm16.574-10.486-.933-1.336c2.648-1.85,5.291-3.788,7.854-5.758l.994,1.293c-2.583,1.986-5.246,3.937-7.915,5.8Zm-248.6-2.3c-2.633-1.912-5.262-3.915-7.817-5.955l1.018-1.274c2.535,2.024,5.145,4.012,7.757,5.909Zm264.158-9.661-1.051-1.247c2.468-2.083,4.924-4.253,7.3-6.451l1.107,1.2c-2.395,2.215-4.87,4.4-7.357,6.5Zm-279.51-2.6c-2.452-2.147-4.888-4.38-7.24-6.638l1.129-1.177c2.334,2.241,4.751,4.458,7.185,6.589Zm293.923-10.733-1.161-1.145c2.275-2.306,4.526-4.692,6.688-7.091l1.212,1.091c-2.179,2.419-4.446,4.822-6.739,7.145Zm-308.091-2.864c-2.25-2.365-4.471-4.81-6.6-7.267l1.232-1.069c2.116,2.438,4.32,4.864,6.553,7.211Zm321.237-11.728-1.26-1.035c2.056-2.5,4.079-5.083,6.017-7.674l1.306.976C612.822,434.44,610.782,437.041,608.711,439.561Zm-334.105-3.1c-2.02-2.553-4.009-5.188-5.912-7.833l1.324-.953c1.889,2.624,3.863,5.24,5.868,7.774Zm345.873-12.638-1.349-.916c1.819-2.678,3.6-5.435,5.295-8.194l1.391.854C624.106,418.35,622.311,421.128,620.478,423.826ZM263.146,420.54c-1.777-2.725-3.517-5.528-5.17-8.335l1.4-.828c1.641,2.785,3.368,5.568,5.131,8.271Zm367.62-13.465-1.427-.788c1.566-2.834,3.087-5.744,4.523-8.65l1.462.723c-1.446,2.927-2.98,5.86-4.558,8.715Zm8.711-17.633-1.494-.655c1.3-2.968,2.548-6.008,3.71-9.035l1.523.585c-1.171,3.05-2.429,6.113-3.738,9.1Zm-394.644-3.519c-1.25-3-2.448-6.071-3.559-9.126l1.533-.558c1.1,3.032,2.291,6.078,3.531,9.056Zm401.7-14.856-1.548-.513c1.018-3.067,1.978-6.2,2.854-9.318l1.571.441c-.883,3.14-1.852,6.3-2.877,9.39Zm-408.4-3.575c-.97-3.108-1.882-6.284-2.71-9.439l1.578-.414c.822,3.132,1.727,6.283,2.69,9.368Zm413.715-15.328-1.589-.37c.73-3.143,1.4-6.354,1.985-9.54l1.6.295C653.255,345.761,652.582,348.995,651.847,352.164Zm-418.7-3.665c-.68-3.186-1.3-6.431-1.829-9.648l1.609-.268c.53,3.193,1.141,6.414,1.816,9.575ZM655.4,332.854l-1.617-.221c.439-3.194.809-6.452,1.1-9.682l1.625.147C656.215,326.352,655.842,329.635,655.4,332.854ZM229.936,329.13c-.385-3.229-.7-6.517-.939-9.774l1.627-.119c.236,3.233.55,6.5.932,9.7ZM657.174,313.3l-1.629-.073c.145-3.232.219-6.51.219-9.743H657.4C657.4,306.742,657.321,310.045,657.174,313.3ZM228.5,309.548c-.056-2-.084-4.04-.084-6.063q0-1.883.032-3.758l1.631.029q-.032,1.861-.032,3.73c0,2.008.029,4.033.084,6.019Zm1.966-19.531-1.628-.1c.2-3.259.485-6.551.835-9.784l1.622.176c-.348,3.208-.626,6.475-.828,9.71Zm424.241-9.951c-.326-3.216-.774-4.783-1.247-7.985l1.614-.238c.476,3.226.885,5.689,1.214,8.928Zm-422.144-9.421-1.612-.249c.5-3.227,1.08-6.479,1.726-9.667l1.6.323c-.64,3.164-1.216,6.391-1.712,9.593Zm419.25-8.168c-.622-3.182-1.324-6.385-2.087-9.519l1.585-.385c.769,3.159,1.476,6.386,2.1,9.592Zm-415.386-10.93-1.582-.4c.792-3.159,1.669-6.344,2.608-9.468l1.562.469C238.087,245.253,237.217,248.413,236.431,251.548Zm410.778-8c-.91-3.106-1.9-6.23-2.954-9.286l1.542-.53c1.059,3.08,2.061,6.229,2.978,9.358ZM242.046,232.861l-1.539-.541c1.084-3.083,2.254-6.181,3.478-9.208l1.512.612c-1.215,3-2.377,6.078-3.452,9.138Zm398.828-7.743c-1.19-3-2.464-6.014-3.788-8.954l1.488-.67c1.334,2.963,2.618,6,3.816,9.023Zm-391.508-10.36-1.482-.681c1.362-2.967,2.812-5.942,4.309-8.842l1.45.748C252.157,208.862,250.718,211.814,249.366,214.758Zm383.526-7.369c-1.46-2.88-3.007-5.765-4.6-8.575l1.419-.8c1.6,2.832,3.161,5.739,4.632,8.641Zm-374.573-9.974L256.9,196.6c1.627-2.825,3.343-5.653,5.1-8.405l1.375.878C261.636,191.805,259.933,194.612,258.318,197.415Zm364.991-6.961c-1.724-2.744-3.528-5.477-5.364-8.124l1.34-.929c1.85,2.668,3.669,5.422,5.405,8.187Zm-354.492-9.479-1.333-.94c1.88-2.667,3.846-5.325,5.845-7.9l1.289,1C272.634,175.691,270.683,178.328,268.817,180.976Zm343.4-6.518c-1.966-2.574-4.012-5.134-6.086-7.607l1.25-1.048c2.088,2.492,4.151,5.07,6.132,7.664Zm-331.446-8.889-1.242-1.058c2.11-2.478,4.31-4.945,6.537-7.332l1.192,1.113C285.045,160.66,282.862,163.109,280.767,165.568ZM599.7,159.527c-2.191-2.385-4.464-4.749-6.755-7.025l1.15-1.157c2.308,2.294,4.6,4.675,6.805,7.078Zm-305.638-8.208-1.14-1.166c2.332-2.282,4.746-4.538,7.173-6.7l1.086,1.217c-2.408,2.151-4.8,4.389-7.119,6.654Zm291.817-5.529c-2.4-2.178-4.88-4.326-7.369-6.384l1.04-1.257c2.506,2.074,5,4.238,7.424,6.433ZM308.6,138.342l-1.03-1.265c2.523-2.054,5.13-4.081,7.749-6.022l.972,1.31c-2.6,1.928-5.187,3.939-7.69,5.977Zm15.644-11.595-.91-1.353c2.7-1.817,5.479-3.6,8.262-5.288l.847,1.394c-2.76,1.68-5.519,3.445-8.2,5.248Zm16.627-10.113-.783-1.431c2.856-1.563,5.785-3.079,8.7-4.508l.717,1.465C346.608,113.577,343.7,115.083,340.867,116.634Zm196.848-3.779c-2.9-1.446-5.875-2.843-8.836-4.152l.659-1.492c2.984,1.319,5.98,2.727,8.9,4.184Zm-179.377-4.766-.648-1.5c2.985-1.294,6.039-2.535,9.075-3.688l.579,1.525C364.33,105.574,361.3,106.805,358.338,108.089Zm161.52-3.127c-3.02-1.171-6.111-2.289-9.188-3.321l.519-1.547c3.1,1.041,6.215,2.166,9.258,3.347Zm-143.326-3.781-.508-1.55c3.1-1.016,6.262-1.973,9.4-2.843l.436,1.571c-3.114.863-6.252,1.813-9.327,2.822Zm124.83-2.425c-3.111-.887-6.284-1.713-9.431-2.455l.374-1.587c3.171.747,6.368,1.58,9.5,2.473ZM395.307,95.969l-.363-1.59c3.178-.726,6.415-1.387,9.621-1.966l.29,1.6C401.672,94.593,398.46,95.249,395.307,95.969Zm87.09-1.686c-3.176-.6-6.411-1.127-9.616-1.577l.226-1.615c3.23.454,6.49.988,9.691,1.588Zm-67.915-1.775-.216-1.617c3.229-.431,6.512-.793,9.759-1.076l.142,1.625C420.945,91.722,417.687,92.081,414.482,92.509Zm48.62-.936c-3.213-.3-6.483-.536-9.72-.692l.08-1.629c3.261.158,6.556.393,9.794.7Zm-29.208-.758-.069-1.629c3-.125,6.053-.189,9.082-.19h.738l0,1.631h-.734c-3.006,0-6.039.064-9.013.188Z" transform="translate(-181.591 -88.996)" fill="#3f3d56"/>
    <rect id="Rectangle_30" data-name="Rectangle 30" width="597.794" height="1.631" transform="translate(137.827 531.973)" fill="#3f3d56"/>
    <path id="Path_263" data-name="Path 263" d="M740.124,405.016l8.155,126.409s19.573,49.748,18.758,97.05c0,0-7.34,18.757-1.631,22.02s8.971,5.709,5.709,8.155-5.709,8.156-3.262,9.787,3.262,4.078,2.447,4.078H745.833s4.893-12.233-2.447-15.5-3.262-11.418-3.262-11.418L685.482,485.755l-43.224,146.8s7.34,4.893,1.631,7.34-8.155-2.447-5.709,2.447-.816,7.34-.816,8.155-24.466-2.447-24.466-2.447,12.233-10.6,6.524-13.049-8.155-4.893-6.524-6.524,8.155-17.126,8.155-17.126,3.262-58.719,4.078-61.166,0-13.864,0-19.573-.816-28.544,1.631-34.253,4.893-75.846,17.942-84S740.124,405.016,740.124,405.016Z" transform="translate(-252.419 -147.284)" fill="#2f2e41"/>
    <path id="Path_264" data-name="Path 264" d="M627.436,700.6s16.311,33.437,4.893,37.515-26.1.816-29.36,5.709-39.146,10.6-39.962-1.631,39.146-35.068,39.146-35.068l5.206-8.382Z" transform="translate(-243.306 -201.467)" fill="#2f2e41"/>
    <path id="Path_265" data-name="Path 265" d="M789.436,730.6s16.311,33.437,4.893,37.515-26.1.815-29.36,5.709-39.146,10.6-39.962-1.631,39.146-35.068,39.146-35.068l5.206-8.382Z" transform="translate(-273.188 -207.001)" fill="#2f2e41"/>
    <circle id="Ellipse_24" data-name="Ellipse 24" cx="26.913" cy="26.913" r="26.913" transform="translate(413.898 50.177)" fill="#a0616a"/>
    <path id="Path_266" data-name="Path 266" d="M555.264,112.025,552,135.676l-24.466,18.758-6.524-8.971V114.472Z" transform="translate(-96.103 -20.664)" fill="#a0616a"/>
    <path id="Path_267" data-name="Path 267" d="M679.817,236.545s25.282,2.447,38.331-6.524l26.1,154.138s-92.157,7.34-96.234,2.447V338.488L664.322,260.2Z" transform="translate(-258.987 -115.009)" fill="#3f3d56"/>
    <path id="Path_268" data-name="Path 268" d="M725.839,220.985l8.77,7.369s35.884,5.709,33.437,15.5L758.26,359.657l3.262,39.146s-27.729-7.34-48.933,0-4.358-157.729-4.358-157.729S727.672,223.4,725.839,220.985Z" transform="translate(-268.925 -113.342)" fill="#d0cde1"/>
    <path id="Path_269" data-name="Path 269" d="M682.235,231.931s-26.1,18.831-29.36,31.064-13.864,141.089-13.864,141.089,4.893-2.447,7.34,1.631S686.313,238.381,682.235,231.931Z" transform="translate(-257.327 -115.361)" fill="#d0cde1"/>
    <path id="Path_270" data-name="Path 270" d="M678.063,172.612s-2.914-4.37-1.793-9.077a27.509,27.509,0,0,0,.784-8.18,80.965,80.965,0,0,1,4.706-11.878c2.353-4.258,1.233-6.051,8.628-7.4s4.37-10.982,23.868-.56a5.718,5.718,0,0,0,5.939,2.241c4.034-.784,5.491,4.818,5.491,4.818s2.689-1.569,3.7.672,8.2-1.345,8.2,13.783-8.183,28.641-8.183,28.641.6-25.447-12.735-28.024-27.678-10.085-31.152-.448a73.465,73.465,0,0,1-7.452,15.408Z" transform="translate(-264.153 -96.695)" fill="#2f2e41"/>
    <ellipse id="Ellipse_25" data-name="Ellipse 25" cx="2.63" cy="3.507" rx="2.63" ry="3.507" transform="translate(462.911 74.953)" fill="#a0616a"/>
    <path id="Path_271" data-name="Path 271" d="M602.413,493.667c-6.453-3.881-14.234-3.584-17.192-3.288,1.127,2.75,4.507,9.765,10.96,13.648,6.469,3.891,14.24,3.585,17.193,3.291C612.247,504.568,608.867,497.55,602.413,493.667Z" transform="translate(-247.405 -163.004)" fill="#d0cde1"/>
    <path id="Path_272" data-name="Path 272" d="M632.309,588.87H591.975a9.075,9.075,0,1,0,0,18.15h40.333a9.075,9.075,0,0,0,0-18.15Z" transform="translate(-246.977 -181.201)" fill="#d0cde1"/>
    <path id="Path_273" data-name="Path 273" d="M811.761,471.412H585.623a20.032,20.032,0,0,0-20.032,20.032V601.623a20.032,20.032,0,0,0,20.032,20.032H811.761a20.032,20.032,0,0,0,20.032-20.032V491.443a20.032,20.032,0,0,0-20.031-20.031ZM580.028,485.076c.447-.081,11.036-1.883,19.8,3.393s12.136,15.476,12.275,15.907l.354,1.1-1.138.2a30.2,30.2,0,0,1-4.907.36,29.22,29.22,0,0,1-14.9-3.755c-8.768-5.274-12.136-15.475-12.275-15.906l-.354-1.1ZM629.116,587.37H588.783a11.092,11.092,0,0,1,0-22.183h40.333a11.092,11.092,0,0,1,0,22.183Zm183.518-2.017a12.136,12.136,0,0,1-12.1,12.1h-30.25a12.136,12.136,0,0,1-12.1-12.1V567.2a12.136,12.136,0,0,1,12.1-12.1h30.25a12.136,12.136,0,0,1,12.1,12.1Z" transform="translate(-243.785 -159.535)" fill="#d0cde1"/>
    <path id="Path_274" data-name="Path 274" d="M824.563,606.8H811.455a3.529,3.529,0,0,0,0,7.058h13.108a3.529,3.529,0,1,0,0-7.058Zm0,5.042H811.455a1.513,1.513,0,0,1,0-3.025h13.108a1.512,1.512,0,1,1,0,3.025Z" transform="translate(-288.484 -184.508)" fill="#d0cde1"/>
    <path id="Path_275" data-name="Path 275" d="M854.236,606.8H841.128a3.529,3.529,0,0,0,0,7.058h13.108a3.529,3.529,0,0,0,0-7.058Zm0,5.042H841.128a1.513,1.513,0,0,1,0-3.025h13.108a1.512,1.512,0,1,1,0,3.025Z" transform="translate(-293.958 -184.508)" fill="#d0cde1"/>
    <path id="Path_276" data-name="Path 276" d="M824.563,595.67H811.455a3.529,3.529,0,0,0,0,7.058h13.108a3.529,3.529,0,1,0,0-7.058Zm0,5.042H811.455a1.513,1.513,0,0,1,0-3.025h13.108a1.513,1.513,0,1,1,0,3.025Z" transform="translate(-288.484 -182.455)" fill="#d0cde1"/>
    <path id="Path_277" data-name="Path 277" d="M854.236,595.67H841.128a3.529,3.529,0,0,0,0,7.058h13.108a3.529,3.529,0,0,0,0-7.058Zm0,5.042H841.128a1.513,1.513,0,0,1,0-3.025h13.108a1.513,1.513,0,0,1,0,3.025Z" transform="translate(-293.958 -182.455)" fill="#d0cde1"/>
    <path id="Path_278" data-name="Path 278" d="M824.563,584.542H811.455a3.529,3.529,0,0,0,0,7.058h13.108a3.529,3.529,0,1,0,0-7.058Zm0,5.042H811.455a1.513,1.513,0,0,1,0-3.025h13.108a1.513,1.513,0,1,1,0,3.025Z" transform="translate(-288.484 -180.402)" fill="#d0cde1"/>
    <path id="Path_279" data-name="Path 279" d="M854.236,584.542H841.128a3.529,3.529,0,0,0,0,7.058h13.108a3.529,3.529,0,0,0,0-7.058Zm0,5.042H841.128a1.513,1.513,0,0,1,0-3.025h13.108a1.513,1.513,0,0,1,0,3.025Z" transform="translate(-293.958 -180.402)" fill="#d0cde1"/>
    <path id="Path_280" data-name="Path 280" d="M772.243,439.73,766.4,458.807s-1.494,35.565-21.067,30.671,5.709-46.486,5.709-46.486l5.709-8.971Z" transform="translate(-275.568 -152.638)" fill="#a0616a"/>
    <path id="Path_281" data-name="Path 281" d="M636.243,439.73,630.4,458.807s-1.494,35.565-21.067,30.671,5.709-46.486,5.709-46.486l5.709-8.971Z" transform="translate(-250.482 -152.638)" fill="#a0616a"/>
    <path id="Path_282" data-name="Path 282" d="M771.137,241.982s13.049-3.262,17.126,18.758,8.971,84.817,8.971,84.817l-19.573,66.059s-19.573-10.6-23.651-8.971l15.4-57.35-12.956-58.458S767.875,241.982,771.137,241.982Z" transform="translate(-278.54 -117.184)" fill="#d0cde1"/>
    <path id="Path_283" data-name="Path 283" d="M580.747,209.393l17.126,57.088-17.126,57.9,9.787-57.9Z" transform="translate(-107.122 -38.624)" opacity="0.15"/>
    <path id="Path_284" data-name="Path 284" d="M649.371,297.021l-29.36,115.807s15.487,5.111,21.2,9.189Z" transform="translate(-253.823 -127.368)" fill="#d0cde1"/>
    <circle id="Ellipse_26" data-name="Ellipse 26" cx="81.554" cy="81.554" r="81.554" transform="translate(6.004 297.579)" fill="#3f3d56"/>
    <circle id="Ellipse_27" data-name="Ellipse 27" cx="70.137" cy="70.137" r="70.137" transform="translate(17.422 308.997)" opacity="0.1"/>
    <path id="Path_285" data-name="Path 285" d="M271.163,585.861V575.653c-5.16-.1-10.5-1.921-13.612-4.447l2.135-6.772A21.759,21.759,0,0,0,272.5,568.78c6.317,0,10.588-4.144,10.588-9.9,0-5.559-3.47-9-10.054-12.028-9.075-4.043-14.68-8.692-14.68-17.485,0-8.389,5.249-14.757,13.435-16.273V502.881H277.3v9.8a21.647,21.647,0,0,1,11.566,3.537l-2.225,6.671a19.66,19.66,0,0,0-11.21-3.437c-6.85,0-9.431,4.649-9.431,8.692,0,5.256,3.292,7.883,11.032,11.522,9.164,4.245,13.79,9.5,13.79,18.5,0,7.985-4.894,15.464-14.058,17.182v10.512Z" transform="translate(-186.965 -165.339)" fill="#3fa9f5"/>
    <path id="Path_286" data-name="Path 286" d="M344.711,752.862a588.842,588.842,0,0,1-173.711,0V733.289a654.34,654.34,0,0,0,173.711,0Z" transform="translate(-171 -207.839)" fill="#3f3d56"/>
    <path id="Path_287" data-name="Path 287" d="M344.711,715.862a588.844,588.844,0,0,1-173.711,0V696.289a654.338,654.338,0,0,0,173.711,0Z" transform="translate(-171 -201.015)" fill="#3f3d56"/>
    <path id="Path_288" data-name="Path 288" d="M344.711,678.862a588.844,588.844,0,0,1-173.711,0V659.289a654.335,654.335,0,0,0,173.711,0Z" transform="translate(-171 -194.19)" fill="#3f3d56"/>
  </g>
</svg>
